ISO-10303-21;
HEADER;
FILE_DESCRIPTION(('брусок'),'2;1');
FILE_NAME('box.step','2026-09-02T00:00:00',(''),(''),'','','');
FILE_SCHEMA(('AUTOMOTIVE_DESIGN { 1 0 10303 214 1 1 1 1 }'));
ENDSEC;
DATA;
#1 = CARTESIAN_POINT('',(0.000000,0.000000,0.000000));
#2 = CARTESIAN_POINT('',(2.000000,0.000000,0.000000));
#3 = CARTESIAN_POINT('',(2.000000,3.000000,0.000000));
#4 = CARTESIAN_POINT('',(0.000000,3.000000,0.000000));
#5 = CARTESIAN_POINT('',(0.000000,0.000000,5.000000));
#6 = CARTESIAN_POINT('',(2.000000,0.000000,5.000000));
#7 = CARTESIAN_POINT('',(2.000000,3.000000,5.000000));
#8 = CARTESIAN_POINT('',(0.000000,3.000000,5.000000));
#9 = VERTEX_POINT('',#1);
#10 = VERTEX_POINT('',#2);
#11 = VERTEX_POINT('',#3);
#12 = VERTEX_POINT('',#4);
#13 = VERTEX_POINT('',#5);
#14 = VERTEX_POINT('',#6);
#15 = VERTEX_POINT('',#7);
#16 = VERTEX_POINT('',#8);
#17 = DIRECTION('',(1.000000,0.000000,0.000000));
#18 = VECTOR('',#17,2.000000);
#19 = CARTESIAN_POINT('',(0.000000,0.000000,0.000000));
#20 = LINE('',#19,#18);
#21 = EDGE_CURVE('',#9,#10,#20,.T.);
#22 = DIRECTION('',(0.000000,1.000000,0.000000));
#23 = VECTOR('',#22,3.000000);
#24 = CARTESIAN_POINT('',(2.000000,0.000000,0.000000));
#25 = LINE('',#24,#23);
#26 = EDGE_CURVE('',#10,#11,#25,.T.);
#27 = DIRECTION('',(-1.000000,0.000000,0.000000));
#28 = VECTOR('',#27,2.000000);
#29 = CARTESIAN_POINT('',(2.000000,3.000000,0.000000));
#30 = LINE('',#29,#28);
#31 = EDGE_CURVE('',#11,#12,#30,.T.);
#32 = DIRECTION('',(0.000000,-1.000000,0.000000));
#33 = VECTOR('',#32,3.000000);
#34 = CARTESIAN_POINT('',(0.000000,3.000000,0.000000));
#35 = LINE('',#34,#33);
#36 = EDGE_CURVE('',#12,#9,#35,.T.);
#37 = DIRECTION('',(1.000000,0.000000,0.000000));
#38 = VECTOR('',#37,2.000000);
#39 = CARTESIAN_POINT('',(0.000000,0.000000,5.000000));
#40 = LINE('',#39,#38);
#41 = EDGE_CURVE('',#13,#14,#40,.T.);
#42 = DIRECTION('',(0.000000,1.000000,0.000000));
#43 = VECTOR('',#42,3.000000);
#44 = CARTESIAN_POINT('',(2.000000,0.000000,5.000000));
#45 = LINE('',#44,#43);
#46 = EDGE_CURVE('',#14,#15,#45,.T.);
#47 = DIRECTION('',(-1.000000,0.000000,0.000000));
#48 = VECTOR('',#47,2.000000);
#49 = CARTESIAN_POINT('',(2.000000,3.000000,5.000000));
#50 = LINE('',#49,#48);
#51 = EDGE_CURVE('',#15,#16,#50,.T.);
#52 = DIRECTION('',(0.000000,-1.000000,0.000000));
#53 = VECTOR('',#52,3.000000);
#54 = CARTESIAN_POINT('',(0.000000,3.000000,5.000000));
#55 = LINE('',#54,#53);
#56 = EDGE_CURVE('',#16,#13,#55,.T.);
#57 = DIRECTION('',(0.000000,0.000000,1.000000));
#58 = VECTOR('',#57,5.000000);
#59 = CARTESIAN_POINT('',(0.000000,0.000000,0.000000));
#60 = LINE('',#59,#58);
#61 = EDGE_CURVE('',#9,#13,#60,.T.);
#62 = DIRECTION('',(0.000000,0.000000,1.000000));
#63 = VECTOR('',#62,5.000000);
#64 = CARTESIAN_POINT('',(2.000000,0.000000,0.000000));
#65 = LINE('',#64,#63);
#66 = EDGE_CURVE('',#10,#14,#65,.T.);
#67 = DIRECTION('',(0.000000,0.000000,1.000000));
#68 = VECTOR('',#67,5.000000);
#69 = CARTESIAN_POINT('',(2.000000,3.000000,0.000000));
#70 = LINE('',#69,#68);
#71 = EDGE_CURVE('',#11,#15,#70,.T.);
#72 = DIRECTION('',(0.000000,0.000000,1.000000));
#73 = VECTOR('',#72,5.000000);
#74 = CARTESIAN_POINT('',(0.000000,3.000000,0.000000));
#75 = LINE('',#74,#73);
#76 = EDGE_CURVE('',#12,#16,#75,.T.);
#77 = ORIENTED_EDGE('',*,*,#21,.T.);
#78 = ORIENTED_EDGE('',*,*,#26,.T.);
#79 = ORIENTED_EDGE('',*,*,#31,.T.);
#80 = ORIENTED_EDGE('',*,*,#36,.T.);
#81 = EDGE_LOOP('',(#77,#78,#79,#80));
#82 = FACE_OUTER_BOUND('',#81,.T.);
#83 = CARTESIAN_POINT('',(0.000000,0.000000,0.000000));
#84 = DIRECTION('',(0.000000,0.000000,-1.000000));
#85 = DIRECTION('',(1.000000,0.000000,0.000000));
#86 = AXIS2_PLACEMENT_3D('',#83,#84,#85);
#87 = PLANE('',#86);
#88 = ADVANCED_FACE('',(#82),#87,.T.);
#89 = ORIENTED_EDGE('',*,*,#41,.T.);
#90 = ORIENTED_EDGE('',*,*,#46,.T.);
#91 = ORIENTED_EDGE('',*,*,#51,.T.);
#92 = ORIENTED_EDGE('',*,*,#56,.T.);
#93 = EDGE_LOOP('',(#89,#90,#91,#92));
#94 = FACE_OUTER_BOUND('',#93,.T.);
#95 = CARTESIAN_POINT('',(0.000000,0.000000,5.000000));
#96 = DIRECTION('',(0.000000,0.000000,1.000000));
#97 = DIRECTION('',(1.000000,0.000000,0.000000));
#98 = AXIS2_PLACEMENT_3D('',#95,#96,#97);
#99 = PLANE('',#98);
#100 = ADVANCED_FACE('',(#94),#99,.T.);
#101 = ORIENTED_EDGE('',*,*,#21,.T.);
#102 = ORIENTED_EDGE('',*,*,#66,.T.);
#103 = ORIENTED_EDGE('',*,*,#41,.F.);
#104 = ORIENTED_EDGE('',*,*,#61,.F.);
#105 = EDGE_LOOP('',(#101,#102,#103,#104));
#106 = FACE_OUTER_BOUND('',#105,.T.);
#107 = CARTESIAN_POINT('',(0.000000,0.000000,0.000000));
#108 = DIRECTION('',(0.000000,-1.000000,0.000000));
#109 = DIRECTION('',(1.000000,0.000000,0.000000));
#110 = AXIS2_PLACEMENT_3D('',#107,#108,#109);
#111 = PLANE('',#110);
#112 = ADVANCED_FACE('',(#106),#111,.T.);
#113 = ORIENTED_EDGE('',*,*,#31,.T.);
#114 = ORIENTED_EDGE('',*,*,#76,.T.);
#115 = ORIENTED_EDGE('',*,*,#51,.F.);
#116 = ORIENTED_EDGE('',*,*,#71,.F.);
#117 = EDGE_LOOP('',(#113,#114,#115,#116));
#118 = FACE_OUTER_BOUND('',#117,.T.);
#119 = CARTESIAN_POINT('',(0.000000,3.000000,0.000000));
#120 = DIRECTION('',(0.000000,1.000000,0.000000));
#121 = DIRECTION('',(1.000000,0.000000,0.000000));
#122 = AXIS2_PLACEMENT_3D('',#119,#120,#121);
#123 = PLANE('',#122);
#124 = ADVANCED_FACE('',(#118),#123,.T.);
#125 = ORIENTED_EDGE('',*,*,#36,.T.);
#126 = ORIENTED_EDGE('',*,*,#61,.T.);
#127 = ORIENTED_EDGE('',*,*,#56,.F.);
#128 = ORIENTED_EDGE('',*,*,#76,.F.);
#129 = EDGE_LOOP('',(#125,#126,#127,#128));
#130 = FACE_OUTER_BOUND('',#129,.T.);
#131 = CARTESIAN_POINT('',(0.000000,0.000000,0.000000));
#132 = DIRECTION('',(-1.000000,0.000000,0.000000));
#133 = DIRECTION('',(0.000000,1.000000,0.000000));
#134 = AXIS2_PLACEMENT_3D('',#131,#132,#133);
#135 = PLANE('',#134);
#136 = ADVANCED_FACE('',(#130),#135,.T.);
#137 = ORIENTED_EDGE('',*,*,#26,.T.);
#138 = ORIENTED_EDGE('',*,*,#71,.T.);
#139 = ORIENTED_EDGE('',*,*,#46,.F.);
#140 = ORIENTED_EDGE('',*,*,#66,.F.);
#141 = EDGE_LOOP('',(#137,#138,#139,#140));
#142 = FACE_OUTER_BOUND('',#141,.T.);
#143 = CARTESIAN_POINT('',(2.000000,0.000000,0.000000));
#144 = DIRECTION('',(1.000000,0.000000,0.000000));
#145 = DIRECTION('',(0.000000,1.000000,0.000000));
#146 = AXIS2_PLACEMENT_3D('',#143,#144,#145);
#147 = PLANE('',#146);
#148 = ADVANCED_FACE('',(#142),#147,.T.);
#149 = CLOSED_SHELL('',(#88,#100,#112,#124,#136,#148));
#150 = MANIFOLD_SOLID_BREP('брусок',#149);
#151 = (NAMED_UNIT(*)LENGTH_UNIT()SI_UNIT(.MILLI.,.METRE.));
ENDSEC;
END-ISO-10303-21;
