ISO-10303-21;
HEADER;
FILE_DESCRIPTION(('цилиндр'),'2;1');
FILE_NAME('cyl.step','2026-09-02T00:00:00',(''),(''),'','','');
FILE_SCHEMA(('AUTOMOTIVE_DESIGN { 1 0 10303 214 1 1 1 1 }'));
ENDSEC;
DATA;
#1 = DIRECTION('',(0.000000,0.000000,1.000000));
#2 = DIRECTION('',(1.000000,0.000000,0.000000));
#3 = CARTESIAN_POINT('',(4.000000,0.000000,0.000000));
#4 = CARTESIAN_POINT('',(4.000000,0.000000,10.000000));
#5 = VERTEX_POINT('',#3);
#6 = VERTEX_POINT('',#4);
#7 = CARTESIAN_POINT('',(0.000000,0.000000,0.000000));
#8 = AXIS2_PLACEMENT_3D('',#7,#1,#2);
#9 = CIRCLE('',#8,4.000000);
#10 = CARTESIAN_POINT('',(0.000000,0.000000,10.000000));
#11 = AXIS2_PLACEMENT_3D('',#10,#1,#2);
#12 = CIRCLE('',#11,4.000000);
#13 = EDGE_CURVE('',#5,#5,#9,.T.);
#14 = EDGE_CURVE('',#6,#6,#12,.T.);
#15 = DIRECTION('',(0.000000,0.000000,1.000000));
#16 = VECTOR('',#15,10.000000);
#17 = CARTESIAN_POINT('',(4.000000,0.000000,0.000000));
#18 = LINE('',#17,#16);
#19 = EDGE_CURVE('',#5,#6,#18,.T.);
#20 = CARTESIAN_POINT('',(0.000000,0.000000,0.000000));
#21 = DIRECTION('',(0.000000,0.000000,-1.000000));
#22 = AXIS2_PLACEMENT_3D('',#20,#21,#2);
#23 = PLANE('',#22);
#24 = CARTESIAN_POINT('',(0.000000,0.000000,10.000000));
#25 = AXIS2_PLACEMENT_3D('',#24,#1,#2);
#26 = PLANE('',#25);
#27 = CARTESIAN_POINT('',(0.000000,0.000000,0.000000));
#28 = AXIS2_PLACEMENT_3D('',#27,#1,#2);
#29 = CYLINDRICAL_SURFACE('',#28,4.000000);
#30 = ORIENTED_EDGE('',*,*,#13,.F.);
#31 = EDGE_LOOP('',(#30));
#32 = FACE_OUTER_BOUND('',#31,.T.);
#33 = ADVANCED_FACE('',(#32),#23,.T.);
#34 = ORIENTED_EDGE('',*,*,#14,.T.);
#35 = EDGE_LOOP('',(#34));
#36 = FACE_OUTER_BOUND('',#35,.T.);
#37 = ADVANCED_FACE('',(#36),#26,.T.);
#38 = ORIENTED_EDGE('',*,*,#13,.T.);
#39 = ORIENTED_EDGE('',*,*,#19,.T.);
#40 = ORIENTED_EDGE('',*,*,#14,.F.);
#41 = ORIENTED_EDGE('',*,*,#19,.F.);
#42 = EDGE_LOOP('',(#38,#39,#40,#41));
#43 = FACE_OUTER_BOUND('',#42,.T.);
#44 = ADVANCED_FACE('',(#43),#29,.T.);
#45 = CLOSED_SHELL('',(#33,#37,#44));
#46 = MANIFOLD_SOLID_BREP('цилиндр',#45);
#47 = (NAMED_UNIT(*)LENGTH_UNIT()SI_UNIT(.MILLI.,.METRE.));
ENDSEC;
END-ISO-10303-21;
